<?xml version="1.0" standalone="no"?>
<!DOCTYPE svg PUBLIC "-//W3C//DTD SVG 20010904//EN"
 "http://www.w3.org/TR/2001/REC-SVG-20010904/DTD/svg10.dtd">
<svg version="1.0" xmlns="http://www.w3.org/2000/svg"
 width="225.000000pt" height="225.000000pt" viewBox="0 0 225.000000 225.000000"
 preserveAspectRatio="xMidYMid meet">

<g transform="translate(0.000000,225.000000) scale(0.100000,-0.100000)"
fill="#000000" stroke="none">
<path d="M939 2230 c-342 -58 -653 -290 -813 -607 -131 -261 -151 -570 -56
-855 54 -161 130 -286 249 -411 444 -465 1178 -461 1622 10 110 117 187 245
239 401 137 409 34 846 -269 1146 -171 170 -364 269 -608 311 -89 16 -285 18
-364 5z m304 -324 c20 -8 53 -26 72 -40 l35 -27 50 35 c58 40 112 52 168 36
55 -14 92 -47 127 -111 73 -136 10 -293 -179 -445 -45 -36 -100 -77 -123 -90
-51 -31 -56 -29 -191 76 -204 157 -274 319 -198 457 35 64 63 91 113 108 48
18 78 18 126 1z m-328 -51 c0 -49 -1 -50 -32 -53 l-33 -3 0 -224 0 -224 33 -3
c31 -3 32 -4 32 -53 l0 -50 -147 -3 -148 -3 0 56 0 55 35 0 35 0 0 225 0 225
-35 0 -35 0 0 55 0 56 148 -3 147 -3 0 -50z m356 -795 c18 -10 19 -24 19 -279
0 -230 2 -270 15 -275 21 -8 20 -82 -1 -90 -32 -12 -94 -6 -111 12 -17 16 -20
16 -62 -5 -54 -28 -93 -29 -148 -4 -81 37 -125 153 -104 274 26 149 133 215
264 162 16 -7 17 2 17 98 0 92 2 106 18 110 32 9 73 7 93 -3z m202 -17 c8 -10
19 -30 22 -45 6 -22 1 -33 -24 -59 -26 -25 -37 -30 -59 -24 -15 3 -35 14 -44
22 -24 22 -23 78 2 103 25 25 81 26 103 3z m-708 -192 c59 -33 70 -75 70 -266
l0 -170 -60 0 -60 0 -5 165 -5 165 -29 14 c-39 18 -103 0 -111 -32 -3 -12 -6
-87 -8 -167 l-2 -145 -55 0 -55 0 -5 220 c-3 141 -1 223 5 227 6 4 30 8 53 8
36 0 45 -4 49 -20 5 -20 7 -20 32 -4 55 37 128 39 186 5z m1045 1 c43 -21 47
-39 18 -75 -23 -28 -23 -28 -60 -13 -49 21 -81 20 -109 -3 -20 -16 -21 -21
-10 -35 7 -9 32 -21 55 -27 104 -28 156 -76 156 -143 0 -77 -58 -137 -146
-151 -58 -8 -148 11 -181 39 -25 22 -25 23 -9 53 9 18 20 34 25 37 4 3 31 -4
59 -16 42 -18 58 -20 89 -12 31 7 38 13 38 34 0 22 -8 28 -72 48 -122 39 -164
106 -124 196 37 86 166 118 271 68z m-332 -215 l2 -228 -57 3 -58 3 -3 215
c-1 118 0 220 3 228 3 9 21 12 57 10 l53 -3 3 -228z"/>
<path d="M1047 759 c-59 -34 -64 -209 -7 -239 24 -13 76 -13 101 0 17 10 19
22 19 115 0 96 -2 105 -22 119 -26 18 -65 20 -91 5z"/>
</g>
</svg>
